<svg width="40" height="29" viewBox="0 0 40 29" fill="none" xmlns="http://www.w3.org/2000/svg">
<path d="M36.7661 0H2.77939C1.247 0 0 1.247 0 2.77939V26.2206C0 27.753 1.247 29 2.77939 29H36.7661C38.2985 29 39.5455 27.753 39.5455 26.2206V2.77939C39.5455 1.247 38.2985 0 36.7661 0ZM38.2273 26.2206C38.2273 27.0267 37.5721 27.6818 36.7661 27.6818H2.77939C1.97332 27.6818 1.31818 27.0267 1.31818 26.2206V2.77939C1.31818 1.97332 1.97332 1.31818 2.77939 1.31818H36.7661C37.5721 1.31818 38.2273 1.97332 38.2273 2.77939V26.2206Z" fill="#0EBFCA"/>
<path d="M14.9205 18.6168L12.5227 17.3922V17.1371C13.5957 16.5512 14.3503 15.5863 14.7715 14.2609C15.4102 13.9221 15.8181 13.2623 15.8181 12.5228V11.8638C15.8181 11.2534 15.5341 10.6873 15.0595 10.3155C14.6483 7.82418 12.9096 6.56137 9.88632 6.56137C9.7433 6.56137 9.60357 6.56664 9.46714 6.57718C8.89768 6.62398 8.06393 6.57455 7.34223 6.08946C7.07266 5.90755 6.869 5.73091 6.73916 5.5668C6.51771 5.28405 6.14532 5.18518 5.81511 5.32096C5.48425 5.45673 5.28982 5.78759 5.33134 6.14284C5.35902 6.38934 5.40055 6.67605 5.46316 6.99043C5.59036 7.63305 5.59036 7.63305 5.41175 8.0173C5.34452 8.16296 5.26148 8.34025 5.16393 8.5795C4.94577 9.11402 4.79089 9.6993 4.70191 10.3241C4.23396 10.6965 3.9545 11.2594 3.9545 11.8638V12.5228C3.9545 13.2623 4.36248 13.9221 5.00114 14.2609C5.4223 15.587 6.17696 16.5519 7.24996 17.1371V17.385L4.76584 18.6095C3.85893 19.1039 3.29541 20.053 3.29541 21.0864V21.9597C3.29541 22.489 3.29541 23.7274 9.88632 23.7274C16.4772 23.7274 16.4772 22.489 16.4772 21.9597V21.1391C16.4772 20.0642 15.8808 19.0986 14.9205 18.6168ZM15.159 21.8108C14.7478 22.0612 13.075 22.4092 9.88632 22.4092C6.69764 22.4092 5.02486 22.0612 4.61359 21.8108V21.0864C4.61359 20.5361 4.91348 20.0299 5.37286 19.7801L7.91498 18.5272C8.31175 18.3334 8.56748 17.9228 8.56748 17.4805V16.2922L8.16939 16.1208C7.16955 15.6898 6.51968 14.8679 6.18223 13.607L6.08798 13.2558L5.7413 13.1477C5.4658 13.0613 5.27268 12.8049 5.27268 12.5228V11.8638C5.27268 11.6252 5.40911 11.4037 5.62925 11.2864L5.93836 11.1216L5.97461 10.773C6.03986 10.1547 6.17761 9.58462 6.38457 9.07909C6.47223 8.86489 6.54671 8.70473 6.60734 8.57357C6.83077 8.09375 6.91184 7.84593 6.85582 7.33777C7.63091 7.78068 8.56221 7.96918 9.57259 7.89207C9.67475 7.8835 9.77955 7.87955 9.88698 7.87955C12.3546 7.87955 13.5594 8.77328 13.7947 10.7782L13.8356 11.1223L14.1421 11.2844C14.3622 11.4017 14.5 11.6238 14.5 11.8638V12.5228C14.5 12.8049 14.3068 13.0613 14.0307 13.147L13.684 13.2551L13.5898 13.6064C13.2523 14.8672 12.6024 15.6891 11.6026 16.1202L11.2045 16.2922V17.4858C11.2045 17.9267 11.4484 18.3242 11.8399 18.5239L14.3279 19.7953C14.8407 20.051 15.159 20.5664 15.159 21.1391V21.8108Z" fill="#0EBFCA"/>
<path d="M19.7727 9.88654H26.3636C26.7281 9.88654 27.0227 9.59193 27.0227 9.22745C27.0227 8.86297 26.7281 8.56836 26.3636 8.56836H19.7727C19.4083 8.56836 19.1136 8.86297 19.1136 9.22745C19.1136 9.59193 19.4083 9.88654 19.7727 9.88654Z" fill="#0EBFCA"/>
<path d="M28.9999 9.88654H29.659C30.0235 9.88654 30.3181 9.59193 30.3181 9.22745C30.3181 8.86297 30.0235 8.56836 29.659 8.56836H28.9999C28.6354 8.56836 28.3408 8.86297 28.3408 9.22745C28.3408 9.59193 28.6354 9.88654 28.9999 9.88654Z" fill="#0EBFCA"/>
<path d="M20.4318 19.7729H19.7727C19.4083 19.7729 19.1136 20.0676 19.1136 20.432C19.1136 20.7965 19.4083 21.0911 19.7727 21.0911H20.4318C20.7963 21.0911 21.0909 20.7965 21.0909 20.432C21.0909 20.0676 20.7963 19.7729 20.4318 19.7729Z" fill="#0EBFCA"/>
<path d="M24.3865 19.7729H23.0683C22.7038 19.7729 22.4092 20.0676 22.4092 20.432C22.4092 20.7965 22.7038 21.0911 23.0683 21.0911H24.3865C24.7509 21.0911 25.0455 20.7965 25.0455 20.432C25.0455 20.0676 24.7509 19.7729 24.3865 19.7729Z" fill="#0EBFCA"/>
<path d="M27.6818 19.7729H27.0227C26.6583 19.7729 26.3636 20.0676 26.3636 20.432C26.3636 20.7965 26.6583 21.0911 27.0227 21.0911H27.6818C28.0463 21.0911 28.3409 20.7965 28.3409 20.432C28.3409 20.0676 28.0463 19.7729 27.6818 19.7729Z" fill="#0EBFCA"/>
<path d="M31.6365 19.7729H30.3183C29.9538 19.7729 29.6592 20.0676 29.6592 20.432C29.6592 20.7965 29.9538 21.0911 30.3183 21.0911H31.6365C32.0009 21.0911 32.2955 20.7965 32.2955 20.432C32.2955 20.0676 32.0009 19.7729 31.6365 19.7729Z" fill="#0EBFCA"/>
<path d="M33.8048 19.9637C33.6855 20.0882 33.6136 20.2602 33.6136 20.4316C33.6136 20.603 33.6855 20.7743 33.8048 20.8996C33.9294 21.0182 34.1014 21.0907 34.2727 21.0907C34.4441 21.0907 34.6155 21.0182 34.7407 20.8996C34.8593 20.7743 34.9318 20.603 34.9318 20.4316C34.9318 20.2602 34.8593 20.0882 34.7407 19.9637C34.4902 19.7198 34.0486 19.7198 33.8048 19.9637Z" fill="#0EBFCA"/>
<path d="M34.2727 12.5229H19.7727C19.4083 12.5229 19.1136 12.8176 19.1136 13.182C19.1136 13.5465 19.4083 13.8411 19.7727 13.8411H34.2727C34.6372 13.8411 34.9318 13.5465 34.9318 13.182C34.9318 12.8176 34.6372 12.5229 34.2727 12.5229Z" fill="#0EBFCA"/>
<path d="M34.2727 16.4771H19.7727C19.4083 16.4771 19.1136 16.7717 19.1136 17.1361C19.1136 17.5006 19.4083 17.7952 19.7727 17.7952H34.2727C34.6372 17.7952 34.9318 17.5006 34.9318 17.1361C34.9318 16.7717 34.6372 16.4771 34.2727 16.4771Z" fill="#0EBFCA"/>
</svg>
