<svg width="30" height="30" viewBox="0 0 30 30" fill="none" xmlns="http://www.w3.org/2000/svg">
<path d="M29.8242 28.9758L21.1881 20.3416C23.2246 18.0983 24.3517 15.2272 24.3517 12.1764C24.3517 8.92412 23.0847 5.86611 20.7844 3.56631C18.4842 1.2665 15.4262 0 12.1731 0C8.91992 0 5.86134 1.2665 3.56111 3.56631C-1.18704 8.31416 -1.18704 16.0389 3.56111 20.7864C5.86134 23.0862 8.91992 24.3527 12.1731 24.3527C15.2245 24.3527 18.0957 23.2262 20.3395 21.19L28.9756 29.8242C29.0928 29.9414 29.2463 30 29.3999 30C29.5534 30 29.707 29.9414 29.8242 29.8242C30.0586 29.5898 30.0586 29.2102 29.8242 28.9758ZM4.40971 19.938C0.129809 15.6583 0.129809 8.69473 4.40971 4.41475C6.48314 2.3417 9.24049 1.2 12.1731 1.2C15.1056 1.2 17.8624 2.3417 19.9358 4.41475C22.0093 6.48809 23.1515 9.24463 23.1515 12.1764C23.1515 15.1084 22.0093 17.8646 19.9358 19.938C17.8624 22.011 15.1056 23.1527 12.1731 23.1527C9.24049 23.1527 6.48314 22.011 4.40971 19.938Z" fill="white"/>
</svg>
