<svg width="40" height="24" viewBox="0 0 40 24" fill="none" xmlns="http://www.w3.org/2000/svg">
<rect width="40" height="24" fill="#FCFCFC"/>
<path d="M12 24L28 24C34.6167 24 40 18.6167 40 12C40 5.38333 34.6167 -5.98109e-07 28 -1.33325e-06L12 -3.11091e-06C5.38333 -3.84605e-06 1.28062e-06 5.38333 8.2547e-07 12C3.70315e-07 18.6167 5.38333 24 12 24ZM12 1.33333L28 1.33333C33.8813 1.33333 38.6667 6.11867 38.6667 12C38.6667 17.8813 33.8813 22.6667 28 22.6667L12 22.6667C6.11867 22.6667 1.33333 17.8813 1.33333 12C1.33333 6.11866 6.11867 1.33333 12 1.33333Z" fill="#0EBFCA"/>
<path d="M12 20.6667C16.7786 20.6667 20.6666 16.7787 20.6666 12.0001C20.6666 7.22141 16.7786 3.33341 12 3.33341C7.22129 3.33341 3.33329 7.22141 3.33329 12.0001C3.33329 16.7787 7.22129 20.6667 12 20.6667ZM12 4.66675C16.0433 4.66675 19.3333 7.95675 19.3333 12.0001C19.3333 16.0434 16.0433 19.3334 12 19.3334C7.95663 19.3334 4.66663 16.0434 4.66663 12.0001C4.66663 7.95675 7.95663 4.66675 12 4.66675Z" fill="#0EBFCA"/>
<path d="M28.6667 18C29.0354 18 29.3334 17.702 29.3334 17.3333L29.3334 6.66667C29.3334 6.298 29.0354 6 28.6667 6C28.298 6 28 6.298 28 6.66667L28 17.3333C28 17.702 28.298 18 28.6667 18Z" fill="#0EBFCA"/>
</svg>
