<svg width="40" height="30" viewBox="0 0 40 30" fill="none" xmlns="http://www.w3.org/2000/svg">
<rect width="40" height="30" fill="white"/>
<rect width="40" height="24" transform="translate(0 6)" fill="#FCFCFC"/>
<path d="M28 6H12C5.38333 6 0 11.3833 0 18C0 24.6167 5.38333 30 12 30H28C34.6167 30 40 24.6167 40 18C40 11.3833 34.6167 6 28 6ZM28 28.6667H12C6.11867 28.6667 1.33333 23.8813 1.33333 18C1.33333 12.1187 6.11867 7.33333 12 7.33333H28C33.8813 7.33333 38.6667 12.1187 38.6667 18C38.6667 23.8813 33.8813 28.6667 28 28.6667Z" fill="#0EBFCA"/>
<path d="M12 9.33325C7.22137 9.33325 3.33337 13.2213 3.33337 17.9999C3.33337 22.7786 7.22137 26.6666 12 26.6666C16.7787 26.6666 20.6667 22.7786 20.6667 17.9999C20.6667 13.2213 16.7787 9.33325 12 9.33325ZM12 25.3333C7.95671 25.3333 4.66671 22.0433 4.66671 17.9999C4.66671 13.9566 7.95671 10.6666 12 10.6666C16.0434 10.6666 19.3334 13.9566 19.3334 17.9999C19.3334 22.0433 16.0434 25.3333 12 25.3333Z" fill="#0EBFCA"/>
<path d="M32.1954 14.862L27.3334 19.724L25.138 17.5287C24.8774 17.268 24.456 17.268 24.1954 17.5287C23.9347 17.7893 23.9347 18.2107 24.1954 18.4713L26.862 21.138C26.992 21.268 27.1627 21.3333 27.3334 21.3333C27.504 21.3333 27.6747 21.268 27.8047 21.138L33.138 15.8047C33.3987 15.544 33.3987 15.1227 33.138 14.862C32.8774 14.6013 32.456 14.6013 32.1954 14.862Z" fill="#0EBFCA"/>
</svg>
