<svg width="30" height="30" viewBox="0 0 30 30" fill="none" xmlns="http://www.w3.org/2000/svg">
<path d="M15 0C6.72911 0 0 6.72911 0 15C0 23.2709 6.72911 30 15 30C23.2709 30 30 23.2709 30 15C30 6.72911 23.2709 0 15 0ZM15 28.9286C7.31946 28.9286 1.07143 22.68 1.07143 15C1.07143 7.32 7.31946 1.07143 15 1.07143C22.6805 1.07143 28.9286 7.32 28.9286 15C28.9286 22.68 22.6805 28.9286 15 28.9286Z" fill="white"/>
<path d="M21.4286 8.57129H8.57148C8.27523 8.57129 8.03577 8.81129 8.03577 9.107C8.03577 9.40272 8.27523 9.64272 8.57148 9.64272H21.4286C21.7249 9.64272 21.9643 9.40272 21.9643 9.107C21.9643 8.81129 21.7249 8.57129 21.4286 8.57129Z" fill="white"/>
<path d="M21.4286 14.4644H8.57148C8.27523 14.4644 8.03577 14.7044 8.03577 15.0001C8.03577 15.2958 8.27523 15.5358 8.57148 15.5358H21.4286C21.7249 15.5358 21.9643 15.2958 21.9643 15.0001C21.9643 14.7044 21.7249 14.4644 21.4286 14.4644Z" fill="white"/>
<path d="M21.4286 20.3569H8.57148C8.27523 20.3569 8.03577 20.5969 8.03577 20.8926C8.03577 21.1884 8.27523 21.4284 8.57148 21.4284H21.4286C21.7249 21.4284 21.9643 21.1884 21.9643 20.8926C21.9643 20.5969 21.7249 20.3569 21.4286 20.3569Z" fill="white"/>
</svg>
