<svg width="30" height="30" viewBox="0 0 30 30" fill="none" xmlns="http://www.w3.org/2000/svg">
<path d="M15 0C6.72923 0 0 6.72865 0 15C0 23.2713 6.72923 30 15 30C23.2708 30 30 23.2713 30 15C30 6.72865 23.2708 0 15 0ZM15 28.8462C7.36558 28.8462 1.15385 22.6344 1.15385 15C1.15385 7.36558 7.36558 1.15385 15 1.15385C22.6344 1.15385 28.8462 7.36558 28.8462 15C28.8462 22.6344 22.6344 28.8462 15 28.8462Z" fill="white"/>
<path d="M20.6003 9.39965C20.3747 9.17407 20.0101 9.17407 19.7845 9.39965L15.0001 14.1841L10.2157 9.39965C9.99009 9.17407 9.62547 9.17407 9.3999 9.39965C9.17432 9.62523 9.17432 9.98984 9.3999 10.2154L14.1843 14.9998L9.3999 19.7843C9.17432 20.0098 9.17432 20.3745 9.3999 20.6C9.5124 20.7125 9.66009 20.7691 9.80778 20.7691C9.95547 20.7691 10.1032 20.7125 10.2157 20.6L15.0001 15.8156L19.7845 20.6C19.897 20.7125 20.0447 20.7691 20.1924 20.7691C20.3401 20.7691 20.4878 20.7125 20.6003 20.6C20.8259 20.3745 20.8259 20.0098 20.6003 19.7843L15.8159 14.9998L20.6003 10.2154C20.8259 9.98984 20.8259 9.62523 20.6003 9.39965Z" fill="white"/>
</svg>
