<svg width="30" height="30" viewBox="0 0 30 30" fill="none" xmlns="http://www.w3.org/2000/svg">
<path d="M19.4708 7.98145H10.5295C9.10228 7.98145 7.94116 9.14257 7.94116 10.5697V19.5111C7.94116 20.9383 9.10228 22.0997 10.5295 22.0997H19.4708C20.898 22.0997 22.0595 20.9386 22.0595 19.5111V10.5697C22.0595 9.14257 20.8983 7.98145 19.4708 7.98145ZM15.0001 19.6883C12.4376 19.6883 10.3526 17.6033 10.3526 15.0404C10.3526 12.4779 12.4376 10.3929 15.0001 10.3929C17.563 10.3929 19.648 12.4779 19.648 15.0404C19.648 17.603 17.5627 19.6883 15.0001 19.6883ZM19.7974 11.3538C19.1907 11.3538 18.6974 10.8605 18.6974 10.2542C18.6974 9.64793 19.1907 9.1546 19.7974 9.1546C20.4037 9.1546 20.897 9.64793 20.897 10.2542C20.897 10.8605 20.4037 11.3538 19.7974 11.3538Z" fill="#D62D00"/>
<path d="M15 12.3569C13.5207 12.3569 12.3162 13.5608 12.3162 15.0401C12.3162 16.5201 13.5207 17.7244 15 17.7244C16.48 17.7244 17.6836 16.5201 17.6836 15.0401C17.6836 13.5612 16.4797 12.3569 15 12.3569Z" fill="#D62D00"/>
<path d="M15 0C6.71606 0 0 6.71606 0 15C0 23.2839 6.71606 30 15 30C23.2839 30 30 23.2839 30 15C30 6.71606 23.2839 0 15 0ZM24.0229 19.5111C24.0229 22.0215 21.9811 24.0634 19.4707 24.0634H10.5293C8.01923 24.0634 5.97707 22.0215 5.97707 19.5111V10.5698C5.97707 8.05967 8.01923 6.01751 10.5293 6.01751H19.4707C21.9811 6.01751 24.0229 8.05967 24.0229 10.5698V19.5111Z" fill="#D62D00"/>
</svg>
