<svg width="30" height="30" viewBox="0 0 30 30" fill="none" xmlns="http://www.w3.org/2000/svg">
<path d="M15 0C6.72923 0 0 6.72865 0 15C0 23.2713 6.72923 30 15 30C23.2708 30 30 23.2713 30 15C30 6.72865 23.2708 0 15 0ZM15 28.8462C7.36558 28.8462 1.15385 22.6344 1.15385 15C1.15385 7.36558 7.36558 1.15385 15 1.15385C22.6344 1.15385 28.8462 7.36558 28.8462 15C28.8462 22.6344 22.6344 28.8462 15 28.8462Z" fill="white"/>
<path d="M22.5 14.4229H7.50002C7.18156 14.4229 6.9231 14.6807 6.9231 14.9998C6.9231 15.3188 7.18156 15.5767 7.50002 15.5767H22.5C22.8185 15.5767 23.0769 15.3188 23.0769 14.9998C23.0769 14.6807 22.8185 14.4229 22.5 14.4229Z" fill="white"/>
</svg>
