<svg width="60" height="60" viewBox="0 0 60 60" fill="none" xmlns="http://www.w3.org/2000/svg">
<path d="M51 8.603V8.583L50.69 8.288C50.548 8.153 50.401 8.026 50.256 7.894C50.191 7.834 50.126 7.775 50.061 7.717C49.763 7.448 49.46 7.186 49.153 6.93C49.098 6.884 49.042 6.838 48.987 6.793C48.663 6.527 48.334 6.269 48 6.017C47.958 5.985 47.916 5.954 47.874 5.923C47.522 5.661 47.166 5.407 46.805 5.162C46.776 5.142 46.747 5.123 46.718 5.103C46.344 4.851 45.965 4.608 45.581 4.374C45.557 4.359 45.533 4.344 45.508 4.33C45.12 4.095 44.727 3.869 44.329 3.652C44.302 3.637 44.276 3.623 44.249 3.608C43.855 3.395 43.457 3.191 43.055 2.996C43.018 2.978 42.98 2.96 42.943 2.942C42.552 2.754 42.158 2.576 41.759 2.406C41.704 2.383 41.65 2.359 41.595 2.336C41.215 2.177 40.832 2.026 40.445 1.882C40.431 1.877 40.418 1.871 40.404 1.866C40.39 1.86 40.375 1.855 40.361 1.849C40.311 1.83 40.26 1.813 40.21 1.795C39.846 1.663 39.48 1.54 39.111 1.422C39.007 1.389 38.903 1.354 38.798 1.322C38.453 1.216 38.105 1.118 37.755 1.025C37.625 0.99 37.495 0.953 37.364 0.92C37.036 0.837 36.706 0.763 36.374 0.691C36.221 0.658 36.068 0.622 35.914 0.591C35.599 0.528 35.282 0.474 34.965 0.421C34.793 0.392 34.623 0.36 34.45 0.335C34.14 0.289 33.827 0.252 33.515 0.216C33.335 0.195 33.157 0.17 32.977 0.152C32.644 0.119 32.309 0.097 31.974 0.075C31.813 0.065 31.654 0.049 31.493 0.041C30.999 0.013 30.501 0 30 0C29.499 0 29.001 0.013 28.504 0.038C28.343 0.046 28.184 0.062 28.023 0.072C27.688 0.094 27.353 0.116 27.02 0.149C26.839 0.167 26.661 0.192 26.482 0.213C26.169 0.25 25.857 0.286 25.547 0.332C25.374 0.358 25.204 0.39 25.032 0.418C24.715 0.471 24.398 0.525 24.083 0.588C23.929 0.619 23.776 0.655 23.623 0.688C23.292 0.76 22.961 0.834 22.633 0.917C22.502 0.95 22.372 0.987 22.242 1.022C21.893 1.115 21.545 1.213 21.199 1.319C21.094 1.351 20.991 1.385 20.886 1.419C20.517 1.536 20.151 1.66 19.787 1.792C19.737 1.81 19.686 1.828 19.636 1.846C19.621 1.852 19.607 1.857 19.593 1.863C19.579 1.868 19.566 1.874 19.552 1.879C19.166 2.023 18.782 2.174 18.402 2.333C18.347 2.356 18.293 2.38 18.238 2.403C17.84 2.573 17.445 2.751 17.054 2.939C17.017 2.957 16.979 2.975 16.942 2.993C16.54 3.188 16.142 3.392 15.748 3.605C15.721 3.62 15.694 3.634 15.668 3.649C15.27 3.866 14.878 4.092 14.489 4.327C14.465 4.342 14.441 4.357 14.416 4.371C14.032 4.605 13.653 4.848 13.279 5.1C13.25 5.12 13.221 5.139 13.192 5.159C12.831 5.404 12.474 5.658 12.123 5.92C12.081 5.951 12.039 5.983 11.997 6.014C11.663 6.265 11.335 6.524 11.01 6.79C10.954 6.835 10.899 6.881 10.844 6.927C10.537 7.183 10.235 7.445 9.936 7.714C9.871 7.773 9.806 7.832 9.741 7.891C9.6 8.026 9.452 8.153 9.31 8.288L9 8.583V8.603C3.451 14.05 0 21.628 0 30C0 46.542 13.458 60 30 60C46.542 60 60 46.542 60 30C60 21.628 56.549 14.05 51 8.603ZM29.99 51.962L29.996 51.97H29.98L29.99 51.962ZM22.01 40.442C24.086 38.245 26.955 37 30 37C33.045 37 35.914 38.245 37.99 40.442L30 50.452L22.01 40.442ZM39.241 38.875C36.805 36.404 33.505 35 30 35C26.495 35 23.195 36.404 20.759 38.875L11.405 27.157L20 20.28L29.014 27.492L29.016 27.589L29.32 27.737L29.86 28.136L30.014 28.061L30.18 28.137L30.674 27.741L31 27.563V27.482L40 20.281L48.595 27.157L39.241 38.875ZM11.181 9.284C11.184 9.281 11.187 9.278 11.191 9.276C12.844 7.774 14.677 6.467 16.653 5.391C16.665 5.385 16.677 5.378 16.689 5.372C17.066 5.168 17.448 4.972 17.835 4.784C17.869 4.768 17.902 4.752 17.936 4.736C18.286 4.568 18.641 4.408 19 4.254V18.52L11 24.919V9.457C11.061 9.4 11.12 9.34 11.181 9.284ZM21.841 3.216C22.15 3.122 22.462 3.034 22.776 2.95C22.909 2.914 23.043 2.878 23.177 2.845C23.471 2.771 23.767 2.704 24.064 2.64C24.217 2.607 24.37 2.572 24.525 2.542C24.808 2.486 25.093 2.437 25.379 2.389C25.546 2.361 25.713 2.331 25.881 2.306C26.164 2.264 26.45 2.23 26.735 2.197C26.905 2.177 27.074 2.154 27.244 2.137C27.549 2.107 27.857 2.087 28.165 2.067C28.316 2.057 28.465 2.043 28.617 2.035C28.743 2.029 28.872 2.03 29 2.025V24.92L21 18.52V3.492C21.169 3.434 21.337 3.374 21.508 3.32C21.618 3.285 21.729 3.25 21.841 3.216ZM31.835 2.067C32.143 2.087 32.451 2.107 32.756 2.137C32.926 2.154 33.096 2.177 33.265 2.197C33.551 2.23 33.836 2.264 34.119 2.306C34.287 2.331 34.454 2.361 34.621 2.389C34.907 2.437 35.192 2.486 35.475 2.542C35.629 2.573 35.782 2.607 35.936 2.64C36.233 2.704 36.53 2.772 36.823 2.845C36.957 2.879 37.09 2.915 37.224 2.95C37.538 3.034 37.85 3.122 38.159 3.216C38.27 3.25 38.381 3.285 38.492 3.32C38.663 3.375 38.831 3.435 39 3.492V18.52L31 24.92V2.025C31.128 2.029 31.257 2.028 31.384 2.035C31.535 2.042 31.685 2.057 31.835 2.067ZM42.166 4.784C42.553 4.972 42.935 5.167 43.312 5.372C43.324 5.378 43.336 5.385 43.348 5.391C45.324 6.467 47.157 7.774 48.81 9.276C48.813 9.279 48.816 9.281 48.82 9.284C48.88 9.34 48.939 9.4 49 9.457V24.919L41 18.52V4.254C41.359 4.408 41.714 4.568 42.065 4.736C42.099 4.753 42.133 4.768 42.166 4.784ZM30 58C14.561 58 2 45.439 2 30C2 22.917 4.648 16.445 9 11.509V26.446V27.35L29.012 52.42L29.017 52.621H29.018V52.632L29.338 52.782L29.834 53.172L29.854 53.163L29.861 53.168L30.015 53.093L30.173 53.165L30.181 53.159L30.199 53.167L30.667 52.779L30.805 52.703L31 52.604V52.594V52.405L51 27.35V26.446V11.509C55.352 16.445 58 22.917 58 30C58 45.439 45.439 58 30 58Z" fill="white"/>
</svg>
