<svg width="30" height="30" viewBox="0 0 30 30" fill="none" xmlns="http://www.w3.org/2000/svg">
<path d="M15 0C6.72923 0 0 6.72865 0 15C0 23.2713 6.72923 30 15 30C23.2708 30 30 23.2713 30 15C30 6.72865 23.2708 0 15 0ZM15 28.8462C7.36558 28.8462 1.15385 22.6344 1.15385 15C1.15385 7.36558 7.36558 1.15385 15 1.15385C22.6344 1.15385 28.8462 7.36558 28.8462 15C28.8462 22.6344 22.6344 28.8462 15 28.8462Z" fill="white"/>
<path d="M22.2115 14.4231H15.5769V8.07692C15.5769 7.75788 15.3185 7.5 15 7.5C14.6815 7.5 14.4231 7.75788 14.4231 8.07692V14.4231H7.78847C7.47001 14.4231 7.21155 14.681 7.21155 15C7.21155 15.319 7.47001 15.5769 7.78847 15.5769H14.4231V22.5C14.4231 22.819 14.6815 23.0769 15 23.0769C15.3185 23.0769 15.5769 22.819 15.5769 22.5V15.5769H22.2115C22.53 15.5769 22.7885 15.319 22.7885 15C22.7885 14.681 22.53 14.4231 22.2115 14.4231Z" fill="white"/>
</svg>
