<svg width="30" height="30" viewBox="0 0 30 30" fill="none" xmlns="http://www.w3.org/2000/svg">
<path d="M15 0C6.729 0 0 6.729 0 15C0 23.271 6.729 30 15 30C23.271 30 30 23.271 30 15C30 6.729 23.271 0 15 0ZM15 29C7.2805 29 1 22.7195 1 15C1 7.2805 7.2805 1 15 1C22.7195 1 29 7.2805 29 15C29 22.7195 22.7195 29 15 29Z" fill="white"/>
<path d="M19.5 10C21.1545 10 22.5 8.6545 22.5 7C22.5 5.3455 21.1545 4 19.5 4C17.9345 4 16.6475 5.2055 16.5135 6.737L9.4805 11.894C9.043 11.6445 8.5385 11.5 8 11.5C6.3455 11.5 5 12.8455 5 14.5C5 16.1545 6.3455 17.5 8 17.5C8.5385 17.5 9.043 17.3555 9.4805 17.106L16.513 22.263C16.6475 23.7945 17.9345 25 19.5 25C21.1545 25 22.5 23.6545 22.5 22C22.5 20.3455 21.1545 19 19.5 19C18.155 19 17.014 19.89 16.6345 21.1115L10.2765 16.449C10.726 15.924 11 15.244 11 14.5C11 13.756 10.726 13.076 10.276 12.551L16.634 7.8885C17.014 9.11 18.155 10 19.5 10ZM19.5 5C20.603 5 21.5 5.897 21.5 7C21.5 8.103 20.603 9 19.5 9C18.397 9 17.5 8.103 17.5 7C17.5 5.897 18.397 5 19.5 5ZM6 14.5C6 13.397 6.897 12.5 8 12.5C9.103 12.5 10 13.397 10 14.5C10 15.603 9.103 16.5 8 16.5C6.897 16.5 6 15.603 6 14.5ZM19.5 20C20.603 20 21.5 20.897 21.5 22C21.5 23.103 20.603 24 19.5 24C18.397 24 17.5 23.103 17.5 22C17.5 20.897 18.397 20 19.5 20Z" fill="white"/>
</svg>
