<svg width="30" height="30" viewBox="0 0 30 30" fill="none" xmlns="http://www.w3.org/2000/svg">
<g clip-path="url(#clip0)">
<path d="M15 0C6.72923 0 0 6.72865 0 15C0 23.2713 6.72923 30 15 30C23.2708 30 30 23.2713 30 15C30 6.72865 23.2708 0 15 0ZM15 28.8462C7.36558 28.8462 1.15385 22.6344 1.15385 15C1.15385 7.36558 7.36558 1.15385 15 1.15385C22.6344 1.15385 28.8462 7.36558 28.8462 15C28.8462 22.6344 22.6344 28.8462 15 28.8462Z" fill="white"/>
<path d="M22.0684 8.84793L13.2017 18.8229L7.85998 14.5497C7.61191 14.3506 7.24787 14.3916 7.04941 14.6397C6.85037 14.8889 6.89075 15.2518 7.13941 15.4508L12.9086 20.0662C13.0148 20.151 13.1423 20.1925 13.2692 20.1925C13.4284 20.1925 13.5871 20.1268 13.7008 19.9987L22.9315 9.61408C23.1433 9.37639 23.1219 9.0112 22.8836 8.80004C22.6448 8.58774 22.2808 8.60908 22.0684 8.84793Z" fill="white"/>
</g>
<defs>
<clipPath id="clip0">
<rect width="30" height="30" fill="white"/>
</clipPath>
</defs>
</svg>
