<svg width="30" height="30" viewBox="0 0 30 30" fill="none" xmlns="http://www.w3.org/2000/svg">
<path d="M15 30C23.2843 30 30 23.2843 30 15C30 6.71573 23.2843 0 15 0C6.71573 0 0 6.71573 0 15C0 23.2843 6.71573 30 15 30Z" fill="#4D76A1"/>
<path fill-rule="evenodd" clip-rule="evenodd" d="M14.4333 21.579H15.6106C15.6106 21.579 15.9663 21.5399 16.1478 21.3442C16.3149 21.1645 16.3096 20.8271 16.3096 20.8271C16.3096 20.8271 16.2866 19.2473 17.0198 19.0147C17.7425 18.7856 18.6706 20.5415 19.6544 21.2167C20.3982 21.7276 20.9635 21.6156 20.9635 21.6156L23.5938 21.579C23.5938 21.579 24.9698 21.4942 24.3174 20.4123C24.2639 20.3238 23.9374 19.6121 22.3617 18.1494C20.7124 16.6186 20.9333 16.8662 22.92 14.2183C24.1299 12.6056 24.6136 11.6211 24.4626 11.1994C24.3184 10.7978 23.4286 10.904 23.4286 10.904L20.467 10.9224C20.467 10.9224 20.2474 10.8925 20.0846 10.9898C19.9255 11.0853 19.8231 11.3077 19.8231 11.3077C19.8231 11.3077 19.3543 12.5556 18.7292 13.6169C17.4104 15.8563 16.8831 15.9745 16.6676 15.8354C16.1663 15.5114 16.2914 14.5335 16.2914 13.8388C16.2914 11.6687 16.6206 10.7639 15.6505 10.5296C15.3285 10.4518 15.0916 10.4005 14.2683 10.3922C13.2116 10.3812 12.3172 10.3954 11.8108 10.6435C11.4739 10.8085 11.214 11.1762 11.3722 11.1973C11.568 11.2235 12.0113 11.3168 12.2463 11.6369C12.5498 12.0497 12.5391 12.9771 12.5391 12.9771C12.5391 12.9771 12.7135 15.5317 12.1319 15.8491C11.7327 16.0667 11.1851 15.6223 10.0094 13.5907C9.40694 12.55 8.95211 11.3997 8.95211 11.3997C8.95211 11.3997 8.8644 11.1847 8.70798 11.0698C8.51813 10.9305 8.25288 10.8861 8.25288 10.8861L5.43861 10.9045C5.43861 10.9045 5.01614 10.9163 4.86105 11.1C4.72308 11.2634 4.85009 11.6013 4.85009 11.6013C4.85009 11.6013 7.05338 16.7561 9.54812 19.3538C11.8356 21.7354 14.4333 21.579 14.4333 21.579Z" fill="#FCFCFC"/>
</svg>
